<?xml version="1.0"?><svg width="715.33868" height="471.7551" xmlns="http://www.w3.org/2000/svg" xmlns:xlink="http://www.w3.org/1999/xlink">
 <defs>
  <linearGradient id="linearGradient3414">
   <stop stop-color="#fdffff" id="stop3416" offset="0"/>
   <stop stop-color="#fdffff" stop-opacity="0" id="stop3418" offset="1"/>
  </linearGradient>
  <linearGradient id="linearGradient3366">
   <stop stop-color="#80878b" id="stop3368" offset="0"/>
   <stop stop-color="#f4fcff" id="stop3370" offset="1"/>
  </linearGradient>
  <radialGradient r="92.14286" fy="409.14789" fx="303.57144" cy="409.14789" cx="303.57144" gradientTransform="matrix(1,0,0,0.5930232,0,166.51369)" gradientUnits="userSpaceOnUse" id="radialGradient4326" xlink:href="#linearGradient3414"/>
  <radialGradient r="92.14286" fy="409.14789" fx="303.57144" cy="409.14789" cx="303.57144" gradientTransform="matrix(1,0,0,0.5930232,0,166.51369)" gradientUnits="userSpaceOnUse" id="radialGradient4328" xlink:href="#linearGradient3414"/>
  <radialGradient r="92.14286" fy="409.14789" fx="303.57144" cy="409.14789" cx="303.57144" gradientTransform="matrix(1,0,0,0.5930232,0,166.51369)" gradientUnits="userSpaceOnUse" id="radialGradient4330" xlink:href="#linearGradient3414"/>
  <radialGradient r="92.14286" fy="409.14789" fx="303.57144" cy="409.14789" cx="303.57144" gradientTransform="matrix(1,0,0,0.5930232,0,166.51369)" gradientUnits="userSpaceOnUse" id="radialGradient4332" xlink:href="#linearGradient3414"/>
  <radialGradient r="92.14286" fy="409.14789" fx="303.57144" cy="409.14789" cx="303.57144" gradientTransform="matrix(1,0,0,0.5930232,0,166.51369)" gradientUnits="userSpaceOnUse" id="radialGradient4334" xlink:href="#linearGradient3414"/>
  <radialGradient r="92.14286" fy="409.14789" fx="303.57144" cy="409.14789" cx="303.57144" gradientTransform="matrix(1,0,0,0.5930231,0,166.51371)" gradientUnits="userSpaceOnUse" id="radialGradient4336" xlink:href="#linearGradient3414"/>
  <filter id="filter6725">
   <feGaussianBlur id="feGaussianBlur6727" stdDeviation="10.829078"/>
  </filter>
  <filter height="1.242013" y="-0.121007" width="1.132084" x="-0.066042" id="filter7054">
   <feGaussianBlur id="feGaussianBlur7056" stdDeviation="1.881325"/>
  </filter>
  <filter height="1.217435" y="-0.108718" width="1.096775" x="-0.048388" id="filter7058">
   <feGaussianBlur id="feGaussianBlur7060" stdDeviation="1.881325"/>
  </filter>
  <filter height="1.203457" y="-0.101729" width="1.097721" x="-0.04886" id="filter7062">
   <feGaussianBlur id="feGaussianBlur7064" stdDeviation="1.881325"/>
  </filter>
 </defs>
 <metadata id="metadata7">image/svg+xml</metadata>
 <g>
  <title>Layer 1</title>
  <g id="svg_1">
   <path fill="#376e04" fill-rule="nonzero" stroke-width="0.5" marker-start="none" marker-mid="none" marker-end="none" stroke-miterlimit="4" stroke-dashoffset="0" d="m344.53125,117.149681c-1.783752,-0.091499 -3.662659,-0.030037 -5.614258,0.19352c-16.957611,1.942535 -27.618225,15.131409 -26.255371,27.760162c0.367767,3.407883 1.48819,6.463562 3.360199,9.31073c1.997681,3.040512 2.695435,6.792969 1.929871,10.37886c-0.765564,3.585907 -2.927185,6.690384 -5.97879,8.586639c-0.69873,0.433182 -1.500824,1.014526 -2.400146,1.698715c-4.38089,3.33075 -10.312866,3.493835 -14.859955,0.408569c-5.583527,-3.789795 -13.11145,-5.882309 -21.288147,-4.945663c-16.957581,1.942535 -27.618195,15.131393 -26.255371,27.760162c1.118103,10.360733 9.945435,19.075897 22.749115,20.986755c3.482849,0.517776 6.612915,2.468979 8.674225,5.407379c2.06131,2.93837 2.877533,6.612564 2.262024,10.182175c-0.358398,2.071213 -0.632874,4.154099 -0.813965,6.257324c-0.319489,3.716202 -2.129822,7.126389 -4.994537,9.40834c-2.864655,2.281952 -6.523773,3.228638 -10.094971,2.61174c-3.029114,-0.524155 -6.221863,-0.635513 -9.51709,-0.258026c-16.957581,1.94252 -27.618195,15.131378 -26.255341,27.760162c1.313599,12.172699 13.566711,22.29657 29.699005,21.309296c3.828705,-0.231781 7.561188,1.291168 10.197662,4.160919c2.636475,2.869751 3.907501,6.79306 3.472687,10.719055c-0.169861,1.523193 -0.163818,3.01886 0,4.537079c1.362335,12.624054 14.57431,23.080261 31.535645,21.137299c10.254761,-1.174744 18.486481,-6.779266 22.790863,-13.568298c3.105957,-4.908417 8.949463,-7.165009 14.421661,-5.569214c12.497314,3.649811 26.161133,4.938385 40.364014,3.311401c17.025085,-1.950256 32.462158,-7.823669 45.310303,-16.406647c3.957642,-2.650696 8.999451,-2.881195 13.169434,-0.602081c3.089539,1.69339 7.026123,2.598236 11.311951,2.1073c7.373047,-0.844604 12.740784,-5.527985 14.567749,-10.063354c1.584534,-3.931488 4.889709,-6.85199 8.902527,-7.866486c4.012756,-1.014465 8.254639,-0.001923 11.425537,2.727325c5.022766,4.325714 12.626953,6.986633 21.058594,6.020782c15.13385,-1.733612 24.454773,-13.391663 23.270874,-24.362701c-0.860901,-7.977417 -6.88739,-14.832672 -16.300049,-17.589325c-3.87854,-1.132141 -7.027283,-4.055145 -8.52301,-7.911957c-1.495728,-3.856827 -1.169006,-8.210495 0.884338,-11.784622c2.117126,-3.686615 2.980774,-7.476898 2.546204,-11.504028c-0.519775,-4.816223 -2.795898,-9.008713 -6.720398,-12.428635c-5.141235,-4.492691 -6.093018,-12.290588 -2.191406,-17.954865c3.213867,-4.662125 4.597961,-9.727783 4.028076,-15.008972c-1.207642,-11.190338 -11.559021,-20.566025 -25.900574,-21.309296c-3.657471,-0.187393 -7.068298,-1.956329 -9.393005,-4.871429c-2.324707,-2.9151 -3.347412,-6.705627 -2.816406,-10.438599c0.206177,-1.458923 0.229187,-2.907623 0.062622,-4.45108c-1.184448,-10.975571 -12.759094,-20.267952 -27.883301,-18.535454c-7.202454,0.825058 -13.294861,4.091713 -17.385315,8.386101c-2.792969,2.93605 -6.740601,4.386932 -10.706665,3.935028c-2.268799,-0.260941 -4.57605,-0.283875 -6.866455,-0.0215c-5.313354,0.608658 -10.03595,2.565781 -13.816467,5.311203c-3.418945,2.489777 -7.793091,3.129364 -11.749451,1.718048c-3.956421,-1.411346 -7.010193,-4.700607 -8.202942,-8.83548c-2.687012,-9.295914 -12.442444,-17.149323 -25.211792,-17.804359z" id="path7072"/>
   <path fill="#8f5902" fill-rule="nonzero" stroke-width="0.5" marker-start="none" marker-mid="none" marker-end="none" stroke-miterlimit="4" stroke-dashoffset="0" d="m288.6633,297.484436c-17.81308,4.585663 56.80661,9.506378 58.939667,15.356812c3.96759,10.881714 -57.502106,29.532379 -87.690735,31.59964c-30.188568,2.067261 54.951721,-2.00766 77.627899,-0.885986c11.64975,0.576263 22.926849,4.771637 34.501251,4.134552c10.075562,-0.554596 7.394531,-5.500275 17.250671,-6.201813c18.463867,-1.314178 50.314331,6.201813 60.377197,5.020508c10.062866,-1.181305 -69.002563,-29.23703 -57.502136,-31.304291c11.500427,-2.067291 81.940552,-15.061523 70.440125,-22.739929c-8.625305,-1.328979 -37.838989,18.340271 -66.127441,15.947449c3.793396,-7.400848 29.469849,-16.390442 7.187744,-19.491333c-8.625305,-0.590668 1.028992,18.311707 -27.313477,18.605377c-13.784119,-1.310181 12.937988,-20.229675 -38.813934,-19.196045c-10.317688,0.206085 36.63974,15.697571 17.969391,18.162415c-16.630402,2.195526 -26.246887,-4.244232 -42.31308,-6.610443c-6.623596,-0.975494 -19.449615,-3.705566 -24.533142,-2.396912z" id="path6729"/>
   <path fill="#4e9a06" fill-rule="nonzero" stroke-width="0.5" marker-start="none" marker-mid="none" marker-end="none" stroke-miterlimit="4" stroke-dashoffset="0" d="m321.30426,60.319767c-24.843109,2.762165 -43.04007,22.682346 -40.61972,44.450802c0.654449,5.886345 2.761292,11.291519 5.961761,16.016068c-1.279144,0.769714 -2.496521,1.615433 -3.678375,2.488197c-8.814056,-5.806602 -20.156921,-8.719955 -32.145172,-7.387047c-24.843109,2.762169 -43.04007,22.682343 -40.619751,44.45079c1.986389,17.865799 17.252014,31.442902 36.393738,34.215698c-0.456696,2.56163 -0.804993,5.145767 -1.036316,7.754074c-4.515167,-0.758331 -9.250732,-0.91507 -14.099091,-0.376007c-24.843109,2.762161 -43.040039,22.682343 -40.619751,44.450806c2.332825,20.981506 22.968353,36.06131 46.702667,34.651489c-0.296783,2.583099 -0.323242,5.223419 -0.026703,7.890411c2.420288,21.768494 24.545868,37.182831 49.388977,34.420654c15.021606,-1.670166 27.604675,-9.615479 34.678223,-20.444214c15.19223,4.306488 31.748505,5.826538 48.8237,3.92804c20.470459,-2.27597 39.159424,-9.158081 54.827332,-19.317047c5.831482,3.102234 12.879456,4.557037 20.280701,3.734161c12.668579,-1.408569 22.907959,-9.105774 27.03595,-19.052124c8.485107,7.092773 20.446594,10.879974 33.189575,9.463165c22.87146,-2.542999 39.626099,-20.865204 37.397827,-40.905975c-1.620239,-14.572739 -12.845276,-26.057739 -27.637268,-30.262421c3.671326,-6.204834 5.433716,-13.32869 4.614685,-20.695053c-0.978455,-8.799942 -5.458618,-16.487808 -12.108887,-22.112656c5.22345,-7.354553 7.853516,-16.160294 6.836914,-25.303955c-2.146057,-19.301659 -19.790833,-33.618225 -41.079407,-34.68911c0.390991,-2.685921 0.458435,-5.430077 0.148254,-8.220352c-2.228271,-20.040794 -22.600708,-34.257645 -45.472107,-31.714699c-10.896973,1.211563 -20.407349,6.014572 -27.13562,12.870735c-3.391907,-0.378647 -6.913879,-0.406502 -10.487488,-0.009163c-8.081726,0.89856 -15.384827,3.783943 -21.371338,8.003601c-5.493225,-18.445335 -25.709839,-30.793129 -48.143311,-28.29887z" id="path6161"/>
   <path fill="#73d216" fill-rule="nonzero" stroke-width="0.5" marker-start="none" marker-mid="none" marker-end="none" stroke-miterlimit="4" stroke-dashoffset="0" filter="url(#filter6725)" id="path6190" d="m328.895477,69.712234c-1.919739,-0.095581 -3.941895,-0.031372 -6.042236,0.202156c-18.250336,2.02916 -29.723663,15.806198 -28.256897,28.998146c0.395813,3.55986 1.601654,6.751801 3.616364,9.725937c2.149963,3.176109 2.900879,7.095901 2.076965,10.841721c-0.823914,3.745819 -3.15033,6.988747 -6.43457,8.969559c-0.751984,0.452499 -1.615265,1.059769 -2.583099,1.77449c-4.714874,3.479263 -11.09906,3.649628 -15.992798,0.426758c-6.009186,-3.958778 -14.111023,-6.144623 -22.91098,-5.166199c-18.250366,2.02916 -29.723663,15.806198 -28.256897,28.998138c1.203308,10.822784 10.703583,19.92662 24.483307,21.922699c3.748352,0.540848 7.117004,2.579071 9.33548,5.648529c2.218445,3.069397 3.096954,6.907455 2.434509,10.63623c-0.385773,2.163589 -0.681183,4.339355 -0.876007,6.536407c-0.343903,3.881882 -2.292236,7.444183 -5.375336,9.827896c-3.083069,2.383713 -7.021057,3.372604 -10.864532,2.72821c-3.260071,-0.547531 -6.696198,-0.663849 -10.242554,-0.269531c-18.250366,2.02916 -29.723694,15.806198 -28.256927,28.998154c1.413788,12.71553 14.600983,23.290894 31.963104,22.259613c4.120544,-0.242157 8.137573,1.348724 10.974976,4.346436c2.837494,2.997772 4.205444,7.096039 3.737488,11.197113c-0.1828,1.591125 -0.176361,3.153503 0,4.739441c1.466156,13.187012 15.685364,24.109497 33.939728,22.079895c11.03653,-1.227112 19.895752,-7.081604 24.528259,-14.17337c3.342712,-5.127319 9.631714,-7.484558 15.521057,-5.817627c13.450043,3.812653 28.155518,5.158661 43.441101,3.459137c18.322998,-2.037262 34.93689,-8.172577 48.764465,-17.138306c4.259338,-2.768921 9.685486,-3.009705 14.17334,-0.628937c3.325134,1.76889 7.561829,2.714111 12.174316,2.201233c7.93512,-0.882233 13.712097,-5.774506 15.678284,-10.512115c1.705383,-4.106781 5.262512,-7.157562 9.581177,-8.2173c4.318726,-1.059723 8.883972,-0.002029 12.296631,2.848953c5.40564,4.518616 13.589478,7.298218 22.663879,6.289276c16.287598,-1.810913 26.319092,-13.988861 25.044922,-25.449158c-0.926514,-8.333191 -7.412476,-15.494202 -17.542664,-18.373734c-4.174194,-1.182663 -7.562988,-4.236023 -9.172729,-8.264832c-1.609741,-4.028793 -1.258179,-8.57663 0.951721,-12.310165c2.278564,-3.850983 3.208069,-7.810318 2.740356,-12.017029c-0.559387,-5.031021 -3.009033,-9.410461 -7.232727,-12.982895c-5.533203,-4.693069 -6.557495,-12.838715 -2.358459,-18.7556c3.458862,-4.870026 4.948486,-10.161591 4.335083,-15.678314c-1.299622,-11.689377 -12.440125,-21.48317 -27.875,-22.259605c-3.936279,-0.19574 -7.607117,-2.043556 -10.10907,-5.088661c-2.501953,-3.045097 -3.6026,-7.004669 -3.031067,-10.904114c0.221802,-1.523994 0.246643,-3.0373 0.067383,-4.64959c-1.27478,-11.465034 -13.731812,-21.171806 -30.008911,-19.362045c-7.751587,0.861855 -14.308472,4.274185 -18.710693,8.760094c-3.00592,3.066986 -7.254456,4.58255 -11.522888,4.110504c-2.441772,-0.272583 -4.924927,-0.296539 -7.389893,-0.022469c-5.718445,0.635796 -10.801025,2.680206 -14.86969,5.548058c-3.679688,2.600815 -8.387207,3.268921 -12.645203,1.794662c-4.258057,-1.474274 -7.544617,-4.910217 -8.828247,-9.229507c-2.891907,-9.710457 -13.390991,-17.914093 -27.13382,-18.598343z"/>
   <path opacity="0.95" fill="#8ae234" fill-rule="nonzero" stroke-width="0.5" marker-start="none" marker-mid="none" marker-end="none" stroke-miterlimit="4" stroke-dashoffset="0" filter="url(#filter7058)" d="m395.738037,161.461136c-19.833557,0 -36.233521,13.003082 -38.813904,29.851685c9.564148,-12.64534 28.196838,-21.226364 49.595581,-21.226364c6.100464,0 11.970886,0.708099 17.475281,1.9991c-7.130676,-6.54451 -17.152954,-10.62442 -28.256958,-10.62442z" id="path6876"/>
   <path opacity="0.95" fill="#8ae234" fill-rule="nonzero" stroke-width="0.5" marker-start="none" marker-mid="none" marker-end="none" stroke-miterlimit="4" stroke-dashoffset="0" filter="url(#filter7062)" id="path6882" d="m352.327881,156.760544c-16.476776,-11.040253 -37.339142,-9.366867 -48.861511,3.193756c14.984436,-5.18132 35.240112,-1.938217 53.017151,9.973282c5.067993,3.395798 9.550659,7.25177 13.404785,11.388245c-2.280884,-9.406097 -8.335754,-18.374298 -17.560425,-24.555283z"/>
   <path opacity="0.95" fill="#8ae234" fill-rule="nonzero" stroke-width="0.5" marker-start="none" marker-mid="none" marker-end="none" stroke-miterlimit="4" stroke-dashoffset="0" filter="url(#filter7054)" d="m408.960022,144.408478c12.190125,-9.281372 27.624878,-7.874588 36.149536,2.684937c-11.085999,-4.35585 -26.071899,-1.629425 -39.223999,8.384415c-3.749451,2.854782 -7.065857,6.096466 -9.917358,9.573944c1.6875,-7.907593 6.167114,-15.447037 12.991821,-20.643295z" id="path6884"/>
   <path opacity="0.95" fill="#4e9a06" fill-rule="nonzero" stroke-width="0.5" marker-start="none" marker-mid="none" marker-end="none" stroke-miterlimit="4" stroke-dashoffset="0" filter="url(#filter7058)" id="path7066" d="m474.10553,267.827118c-16.892151,-10.393463 -24.045898,-30.062271 -17.414429,-45.76442c1.519165,15.781952 12.891846,32.854553 31.117126,44.068222c5.19574,3.196869 10.566589,5.670044 15.931213,7.455017c-9.502747,1.837219 -20.176636,0.060089 -29.633911,-5.75882z"/>
   <path opacity="0.95" fill="#4e9a06" fill-rule="nonzero" stroke-width="0.5" marker-start="none" marker-mid="none" marker-end="none" stroke-miterlimit="4" stroke-dashoffset="0" filter="url(#filter7062)" d="m328.343506,285.412384c-12.264465,15.587006 -32.624664,20.434845 -47.461426,12.044128c15.85199,0.303131 34.117584,-9.033905 47.349884,-25.850922c3.772369,-4.794312 6.845917,-9.845642 9.235077,-14.969757c0.733856,9.650818 -2.257202,20.050049 -9.123535,28.77655z" id="path7068"/>
   <path opacity="0.95" fill="#4e9a06" fill-rule="nonzero" stroke-width="0.5" marker-start="none" marker-mid="none" marker-end="none" stroke-miterlimit="4" stroke-dashoffset="0" filter="url(#filter7054)" id="path7070" d="m414.710266,274.983124c12.190125,9.281372 27.624878,7.874603 36.149536,-2.684967c-11.085999,4.355865 -26.071899,1.629456 -39.223999,-8.384399c-3.749512,-2.854767 -7.065918,-6.096466 -9.917358,-9.573944c1.687439,7.907593 6.167053,15.447021 12.991821,20.643311z"/>
  </g>
 </g>
</svg>